<svg width="79" height="103" viewBox="0 0 79 103" fill="none" xmlns="http://www.w3.org/2000/svg">
<path fill-rule="evenodd" clip-rule="evenodd" d="M68.974 50.5511C65.0024 56.0206 60.2364 59.1697 55.4705 59.8326H54.8085V76.904C54.8085 91.1578 44.8794 102.76 32.435 102.76C20.2553 102.76 10.1939 91.1578 10.1939 76.904V61.8215C4.50118 60.6613 0 55.0261 0 47.8993C0 39.9437 5.56028 33.6455 12.3121 33.6455C19.1962 33.6455 24.7565 39.9437 24.7565 47.8993C24.7565 55.0261 20.3877 60.6613 14.5626 61.8215V76.904C14.5626 88.6716 22.7707 98.1189 32.6998 98.1189C42.7612 98.1189 50.9693 88.6716 50.9693 76.904L51.1017 59.8326C46.4681 59.1697 41.9669 55.8548 37.8629 50.5511C37.201 49.7224 37.0686 48.728 37.201 47.7335C31.6407 39.2807 28.331 28.176 28.331 19.3917C28.331 6.02282 33.455 4.52158 41.6869 2.10979C41.8235 2.06976 41.961 2.02948 42.0993 1.9889H42.2317C42.7612 0.828707 43.8203 0 45.1442 0C46.8653 0 48.3215 1.82315 48.3215 3.81205C48.3215 5.80095 46.8653 7.6241 45.1442 7.6241C44.4823 7.6241 43.688 7.29262 43.1584 6.62965V6.96114C43.0503 6.99122 42.9431 7.021 42.837 7.0505C34.76 9.29597 32.5674 9.90553 32.5674 19.5575C32.5674 27.1816 35.7447 37.4576 40.5106 44.9159C41.1726 44.9159 41.9669 45.4131 42.6288 46.2418C45.0118 49.3909 48.8511 53.3687 53.4846 53.3687C57.9858 53.3687 61.9575 49.3909 64.3404 46.0761C65.0024 45.2474 65.6643 44.9159 66.4586 44.9159C71.2246 37.4576 74.2695 27.1816 74.2695 19.5575C74.2695 9.66267 72.1724 9.12098 63.9354 6.9933L63.8109 6.96114L63.6785 6.7954C63.2813 7.45836 62.6194 7.78984 61.8251 7.78984C60.104 7.78984 58.6478 5.96669 58.6478 3.97779C58.6478 1.9889 60.104 0.165741 61.8251 0.165741C63.1489 0.165741 64.0757 0.828707 64.7376 2.15464V2.32038C73.3428 4.47502 78.3735 5.96669 78.3735 19.3917C78.3735 28.0103 75.0638 39.2807 69.6359 47.5678C69.7683 48.728 69.6359 49.5567 68.974 50.5511ZM12.2427 57.5557C16.5571 57.5557 20.0545 53.1566 20.0545 47.7299C20.0545 42.3033 16.5571 37.9042 12.2427 37.9042C7.92838 37.9042 4.43091 42.3033 4.43091 47.7299C4.43091 53.1566 7.92838 57.5557 12.2427 57.5557Z" fill="white"/>
</svg>
