<svg width="99" height="108" viewBox="0 0 99 108" fill="none" xmlns="http://www.w3.org/2000/svg">
<path d="M55.1281 79.4219C54.7594 78.8687 54.2063 78.5 53.4688 78.5C49.4125 78.5 45.5406 80.3437 43.1438 83.6625L41.4844 85.875C39.4563 88.2719 36.3219 89.5625 33.1875 89.5625H27.6563C26.55 89.5625 25.8125 88.825 25.8125 87.7188C25.8125 86.6125 26.55 85.875 27.6563 85.875H31.1594C34.1094 85.875 36.875 83.4781 36.875 80.5281V80.3438C36.875 79.4219 35.9531 78.5 35.0313 78.5H23.7844C17.1469 78.5 11.8 81.45 8.85002 86.2438L3.8719 93.9875C3.50315 94.5406 3.50315 95.2781 3.8719 95.8312L9.40315 105.05C9.58752 105.419 10.1406 105.787 10.5094 105.972C10.6938 105.972 10.6938 105.972 10.8781 105.972C11.2469 105.972 11.6156 105.788 11.9844 105.603C18.9906 100.994 27.1031 98.5969 35.4 98.5969C41.4844 98.5969 47.0156 95.2781 49.9656 89.9313L54.9438 81.0812C55.3125 80.7125 55.3125 79.975 55.1281 79.4219Z" fill="white"/>
<path d="M65.6666 63.3333C78.2366 63.3333 84.5233 63.3333 88.4266 59.4267C92.3333 55.5233 92.3333 49.2367 92.3333 36.6667C92.3333 24.0967 92.3333 17.81 88.4266 13.9067C84.5233 10 78.2366 10 65.6666 10H52.3333C39.7633 10 33.4766 10 29.5733 13.9067C25.6666 17.81 25.6666 24.0967 25.6666 36.6667C25.6666 49.2367 25.6666 55.5233 29.5733 59.4267C31.75 61.6067 34.6666 62.57 39 62.9933" fill="white"/>
<path d="M65.6666 63.3333C78.2366 63.3333 84.5233 63.3333 88.4266 59.4267C92.3333 55.5233 92.3333 49.2367 92.3333 36.6667C92.3333 24.0967 92.3333 17.81 88.4266 13.9067C84.5233 10 78.2366 10 65.6666 10H52.3333C39.7633 10 33.4766 10 29.5733 13.9067C25.6666 17.81 25.6666 24.0967 25.6666 36.6667C25.6666 49.2367 25.6666 55.5233 29.5733 59.4267C31.75 61.6067 34.6666 62.57 39 62.9933" stroke="white" stroke-width="2" stroke-linecap="round" stroke-linejoin="round"/>
<path d="M65.6666 63.3334C61.5466 63.3334 57.0066 65 52.8633 67.15C46.2033 70.6067 42.8733 72.3367 41.2333 71.2334C39.5933 70.1334 39.9033 66.7167 40.5266 59.8867L40.6666 58.3334" fill="white"/>
<path d="M65.6666 63.3334C61.5466 63.3334 57.0066 65 52.8633 67.15C46.2033 70.6067 42.8733 72.3367 41.2333 71.2334C39.5933 70.1334 39.9033 66.7167 40.5266 59.8867L40.6666 58.3334" stroke="white" stroke-width="2" stroke-linecap="round"/>
<path d="M39.228 43V41.1918L44.0252 36.489C44.484 36.0257 44.8664 35.6141 45.1722 35.2543C45.4781 34.8944 45.7075 34.5458 45.8604 34.2085C46.0134 33.8711 46.0898 33.5112 46.0898 33.1289C46.0898 32.6926 45.9909 32.3192 45.793 32.0089C45.5951 31.694 45.3229 31.4511 44.9766 31.2802C44.6302 31.1093 44.2366 31.0238 43.7958 31.0238C43.3415 31.0238 42.9434 31.1183 42.6016 31.3072C42.2597 31.4916 41.9943 31.7547 41.8054 32.0966C41.621 32.4384 41.5288 32.8455 41.5288 33.3178H39.147C39.147 32.4407 39.3472 31.6783 39.7475 31.0305C40.1478 30.3828 40.6989 29.8813 41.4006 29.5259C42.1068 29.1706 42.9164 28.9929 43.8295 28.9929C44.7562 28.9929 45.5703 29.1661 46.272 29.5124C46.9737 29.8588 47.518 30.3333 47.9048 30.9361C48.2962 31.5388 48.4918 32.227 48.4918 33.0007C48.4918 33.518 48.3929 34.0263 48.195 34.5256C47.997 35.0249 47.6484 35.5781 47.1491 36.1854C46.6544 36.7926 45.9594 37.5281 45.0643 38.3917L42.6825 40.8139V40.9084H48.701V43H39.228ZM50.4822 40.4361V38.4457L56.3455 29.1818H58.0053V32.0156H56.9933L53.0462 38.2702V38.3782H61.2305V40.4361H50.4822ZM57.0742 43V39.8288L57.1012 38.9382V29.1818H59.4627V43H57.0742ZM69.0538 28.5341L64.6007 45.0781H62.4618L66.915 28.5341H69.0538ZM71.0914 43L76.9682 31.3679V31.2734H70.1468V29.1818H79.5591V31.3207L73.6891 43H71.0914Z" fill="#005E6C"/>
</svg>
