<svg width="91" height="91" viewBox="0 0 91 91" fill="none" xmlns="http://www.w3.org/2000/svg">
<path d="M86.7344 28.4375H68.25V4.26562C68.25 3.47933 67.613 2.84375 66.8281 2.84375H24.1719C23.387 2.84375 22.75 3.47933 22.75 4.26562V28.4375H4.26562C3.48075 28.4375 2.84375 29.0731 2.84375 29.8594V86.7344C2.84375 87.5207 3.48075 88.1562 4.26562 88.1562H86.7344C87.5192 88.1562 88.1562 87.5207 88.1562 86.7344V29.8594C88.1562 29.0731 87.5192 28.4375 86.7344 28.4375ZM5.6875 31.2812H22.75V85.3125H5.6875V31.2812ZM49.7656 71.0938V85.3125H41.2344V71.0938H49.7656ZM65.4062 85.3125H52.6094V71.0938H55.4531V68.25H35.5469V71.0938H38.3906V85.3125H25.5938V5.6875H65.4062V85.3125ZM85.3125 85.3125H68.25V31.2812H85.3125V85.3125Z" fill="white"/>
<path d="M72.5156 45.5H81.0469C81.8317 45.5 82.4688 44.8644 82.4688 44.0781V35.5469C82.4688 34.7606 81.8317 34.125 81.0469 34.125H72.5156C71.7308 34.125 71.0938 34.7606 71.0938 35.5469V44.0781C71.0938 44.8644 71.7308 45.5 72.5156 45.5ZM73.9375 36.9688H79.625V42.6562H73.9375V36.9688Z" fill="#FFFDFD"/>
<path d="M72.5156 59.7188H81.0469C81.8317 59.7188 82.4688 59.0832 82.4688 58.2969V49.7656C82.4688 48.9793 81.8317 48.3438 81.0469 48.3438H72.5156C71.7308 48.3438 71.0938 48.9793 71.0938 49.7656V58.2969C71.0938 59.0832 71.7308 59.7188 72.5156 59.7188ZM73.9375 51.1875H79.625V56.875H73.9375V51.1875Z" fill="#FFFDFD"/>
<path d="M72.5156 73.9375H81.0469C81.8317 73.9375 82.4688 73.3019 82.4688 72.5156V63.9844C82.4688 63.1981 81.8317 62.5625 81.0469 62.5625H72.5156C71.7308 62.5625 71.0938 63.1981 71.0938 63.9844V72.5156C71.0938 73.3019 71.7308 73.9375 72.5156 73.9375ZM73.9375 65.4062H79.625V71.0938H73.9375V65.4062Z" fill="#FFFDFD"/>
<path d="M18.4844 34.125H9.95312C9.16825 34.125 8.53125 34.7606 8.53125 35.5469V44.0781C8.53125 44.8644 9.16825 45.5 9.95312 45.5H18.4844C19.2692 45.5 19.9062 44.8644 19.9062 44.0781V35.5469C19.9062 34.7606 19.2692 34.125 18.4844 34.125ZM17.0625 42.6562H11.375V36.9688H17.0625V42.6562Z" fill="#FFFDFD"/>
<path d="M29.8594 39.8125H35.5469C36.3317 39.8125 36.9688 39.1769 36.9688 38.3906V32.7031C36.9688 31.9168 36.3317 31.2812 35.5469 31.2812H29.8594C29.0745 31.2812 28.4375 31.9168 28.4375 32.7031V38.3906C28.4375 39.1769 29.0745 39.8125 29.8594 39.8125ZM31.2812 34.125H34.125V36.9688H31.2812V34.125Z" fill="#FFFDFD"/>
<path d="M48.3438 31.2812H42.6562C41.8714 31.2812 41.2344 31.9168 41.2344 32.7031V38.3906C41.2344 39.1769 41.8714 39.8125 42.6562 39.8125H48.3438C49.1286 39.8125 49.7656 39.1769 49.7656 38.3906V32.7031C49.7656 31.9168 49.1286 31.2812 48.3438 31.2812ZM46.9219 36.9688H44.0781V34.125H46.9219V36.9688Z" fill="#FFFDFD"/>
<path d="M54.0312 32.7031V38.3906C54.0312 39.1769 54.6683 39.8125 55.4531 39.8125H61.1406C61.9255 39.8125 62.5625 39.1769 62.5625 38.3906V32.7031C62.5625 31.9168 61.9255 31.2812 61.1406 31.2812H55.4531C54.6683 31.2812 54.0312 31.9168 54.0312 32.7031ZM56.875 34.125H59.7188V36.9688H56.875V34.125Z" fill="#FFFDFD"/>
<path d="M29.8594 51.1875H35.5469C36.3317 51.1875 36.9688 50.5519 36.9688 49.7656V44.0781C36.9688 43.2918 36.3317 42.6562 35.5469 42.6562H29.8594C29.0745 42.6562 28.4375 43.2918 28.4375 44.0781V49.7656C28.4375 50.5519 29.0745 51.1875 29.8594 51.1875ZM31.2812 45.5H34.125V48.3438H31.2812V45.5Z" fill="#FFFDFD"/>
<path d="M48.3438 42.6562H42.6562C41.8714 42.6562 41.2344 43.2918 41.2344 44.0781V49.7656C41.2344 50.5519 41.8714 51.1875 42.6562 51.1875H48.3438C49.1286 51.1875 49.7656 50.5519 49.7656 49.7656V44.0781C49.7656 43.2918 49.1286 42.6562 48.3438 42.6562ZM46.9219 48.3438H44.0781V45.5H46.9219V48.3438Z" fill="#FFFDFD"/>
<path d="M61.1406 42.6562H55.4531C54.6683 42.6562 54.0312 43.2918 54.0312 44.0781V49.7656C54.0312 50.5519 54.6683 51.1875 55.4531 51.1875H61.1406C61.9255 51.1875 62.5625 50.5519 62.5625 49.7656V44.0781C62.5625 43.2918 61.9255 42.6562 61.1406 42.6562ZM59.7188 48.3438H56.875V45.5H59.7188V48.3438Z" fill="#FFFDFD"/>
<path d="M29.8594 62.5625H35.5469C36.3317 62.5625 36.9688 61.9269 36.9688 61.1406V55.4531C36.9688 54.6668 36.3317 54.0312 35.5469 54.0312H29.8594C29.0745 54.0312 28.4375 54.6668 28.4375 55.4531V61.1406C28.4375 61.9269 29.0745 62.5625 29.8594 62.5625ZM31.2812 56.875H34.125V59.7188H31.2812V56.875Z" fill="#FFFDFD"/>
<path d="M48.3438 54.0312H42.6562C41.8714 54.0312 41.2344 54.6668 41.2344 55.4531V61.1406C41.2344 61.9269 41.8714 62.5625 42.6562 62.5625H48.3438C49.1286 62.5625 49.7656 61.9269 49.7656 61.1406V55.4531C49.7656 54.6668 49.1286 54.0312 48.3438 54.0312ZM46.9219 59.7188H44.0781V56.875H46.9219V59.7188Z" fill="#FFFDFD"/>
<path d="M61.1406 54.0312H55.4531C54.6683 54.0312 54.0312 54.6668 54.0312 55.4531V61.1406C54.0312 61.9269 54.6683 62.5625 55.4531 62.5625H61.1406C61.9255 62.5625 62.5625 61.9269 62.5625 61.1406V55.4531C62.5625 54.6668 61.9255 54.0312 61.1406 54.0312ZM59.7188 59.7188H56.875V56.875H59.7188V59.7188Z" fill="#FFFDFD"/>
<path d="M18.4844 48.3438H9.95312C9.16825 48.3438 8.53125 48.9793 8.53125 49.7656V58.2969C8.53125 59.0832 9.16825 59.7188 9.95312 59.7188H18.4844C19.2692 59.7188 19.9062 59.0832 19.9062 58.2969V49.7656C19.9062 48.9793 19.2692 48.3438 18.4844 48.3438ZM17.0625 56.875H11.375V51.1875H17.0625V56.875Z" fill="#FFFDFD"/>
<path d="M18.4844 62.5625H9.95312C9.16825 62.5625 8.53125 63.1981 8.53125 63.9844V72.5156C8.53125 73.3019 9.16825 73.9375 9.95312 73.9375H18.4844C19.2692 73.9375 19.9062 73.3019 19.9062 72.5156V63.9844C19.9062 63.1981 19.2692 62.5625 18.4844 62.5625ZM17.0625 71.0938H11.375V65.4062H17.0625V71.0938Z" fill="#FFFDFD"/>
<path d="M36.9688 22.75H41.2344V27.0156C41.2344 27.8019 41.8714 28.4375 42.6562 28.4375H48.3438C49.1286 28.4375 49.7656 27.8019 49.7656 27.0156V22.75H54.0312C54.8161 22.75 55.4531 22.1144 55.4531 21.3281V15.6406C55.4531 14.8543 54.8161 14.2188 54.0312 14.2188H49.7656V9.95312C49.7656 9.16683 49.1286 8.53125 48.3438 8.53125H42.6562C41.8714 8.53125 41.2344 9.16683 41.2344 9.95312V14.2188H36.9688C36.1839 14.2188 35.5469 14.8543 35.5469 15.6406V21.3281C35.5469 22.1144 36.1839 22.75 36.9688 22.75ZM38.3906 17.0625H42.6562C43.4411 17.0625 44.0781 16.4269 44.0781 15.6406V11.375H46.9219V15.6406C46.9219 16.4269 47.5589 17.0625 48.3438 17.0625H52.6094V19.9062H48.3438C47.5589 19.9062 46.9219 20.5418 46.9219 21.3281V25.5938H44.0781V21.3281C44.0781 20.5418 43.4411 19.9062 42.6562 19.9062H38.3906V17.0625Z" fill="#FFFDFD"/>
<path d="M62.5625 79.625H59.7188V82.4688H62.5625V79.625Z" fill="#FFFDFD"/>
<path d="M62.5625 73.9375H59.7188V76.7812H62.5625V73.9375Z" fill="#FFFDFD"/>
<path d="M62.5625 68.25H59.7188V71.0938H62.5625V68.25Z" fill="#FFFDFD"/>
</svg>
